<svg width="241" height="241" viewBox="0 0 241 241" fill="none" xmlns="http://www.w3.org/2000/svg">
<path d="M240.245 0H0V240.245H240.245V0Z" fill="#00C9B7"/>
<g clip-path="url(#clip0_4_2)">
<g clip-path="url(#clip1_4_2)">
<path d="M111.463 160.34C114.612 160.336 117.668 159.27 120.135 157.312C122.602 155.355 124.337 152.622 125.056 149.557C125.776 146.491 125.44 143.272 124.102 140.421C122.764 137.57 120.502 135.255 117.683 133.85C110.163 130.21 103.12 125.656 96.7155 120.291C106.466 107.621 114.481 93.7057 120.549 78.9143C124.256 78.7846 127.76 77.1874 130.29 74.4742C132.82 71.7609 134.168 68.1539 134.038 64.4465C133.909 60.7392 132.311 57.2352 129.598 54.7055C126.885 52.1757 123.278 50.8274 119.571 50.9572H91.8929V36.9786C91.8929 33.2712 90.4202 29.7157 87.7987 27.0942C85.1772 24.4727 81.6217 23 77.9143 23C74.207 23 70.6515 24.4727 68.03 27.0942C65.4085 29.7157 63.9358 33.2712 63.9358 36.9786V50.9572H35.9786C32.2712 50.9572 28.7157 52.4299 26.0942 55.0514C23.4727 57.6729 22 61.2284 22 64.9358C22 68.6431 23.4727 72.1986 26.0942 74.8201C28.7157 77.4416 32.2712 78.9143 35.9786 78.9143H90.0757C86.563 86.0255 82.4967 92.8494 77.9143 99.3231C75.2584 95.6188 72.6724 91.7746 70.296 87.651C68.4423 84.4348 65.387 82.0868 61.8021 81.1234C58.2172 80.16 54.3964 80.6601 51.1803 82.5138C47.9642 84.3675 45.6161 87.4229 44.6527 91.0078C43.6893 94.5926 44.1895 98.4134 46.0432 101.63C49.8461 108.105 54.0478 114.337 58.6239 120.291C52.3781 125.612 45.5 130.143 38.1453 133.78C35.3267 135.185 33.0651 137.5 31.7269 140.351C30.3887 143.202 30.0523 146.421 30.7722 149.487C31.4922 152.553 33.2262 155.285 35.6935 157.243C38.1607 159.2 41.2165 160.266 44.3657 160.27C46.5275 160.291 48.6621 159.788 50.5862 158.802C60.4196 153.883 69.6001 147.755 77.9143 140.56C86.2346 147.8 95.441 153.953 105.312 158.872C107.215 159.847 109.325 160.35 111.463 160.34Z" fill="white"/>
<path d="M216.582 198.012L209.593 181.797L209.173 180.818L174.646 100.162C173.572 97.6402 171.78 95.49 169.494 93.9787C167.207 92.4674 164.527 91.6617 161.786 91.6617C159.045 91.6617 156.365 92.4674 154.078 93.9787C151.792 95.49 150 97.6402 148.926 100.162L113.979 181.238L106.99 197.872C105.525 201.283 105.476 205.136 106.852 208.583C108.228 212.03 110.918 214.79 114.329 216.254C117.739 217.718 121.592 217.768 125.039 216.392C128.487 215.015 131.246 212.326 132.71 208.915L136.275 200.598H187.297L190.861 208.915C191.921 211.455 193.706 213.625 195.994 215.155C198.282 216.684 200.97 217.504 203.722 217.512C206.038 217.515 208.318 216.943 210.358 215.846C212.399 214.749 214.134 213.163 215.409 211.229C216.685 209.296 217.459 207.076 217.664 204.769C217.869 202.462 217.497 200.14 216.582 198.012ZM148.227 172.781L161.786 141.259L175.345 172.85L148.227 172.781Z" fill="white"/>
</g>
</g>
<defs>
<clipPath id="clip0_4_2">
<rect width="195.719" height="194.512" fill="white" transform="translate(22 23)"/>
</clipPath>
<clipPath id="clip1_4_2">
<rect width="195.719" height="194.512" fill="white" transform="translate(22 23)"/>
</clipPath>
</defs>
</svg>
