<svg xmlns="http://www.w3.org/2000/svg" version="1.1" xmlns:xlink="http://www.w3.org/1999/xlink" xmlns:svgjs="http://svgjs.dev/svgjs" width="1000" height="265" viewBox="0 0 1000 265"><g transform="matrix(1,0,0,1,-0.6060606060606233,-0.38995320834146696)"><svg viewBox="0 0 396 105" data-background-color="#ffffff" preserveAspectRatio="xMidYMid meet" height="265" width="1000" xmlns="http://www.w3.org/2000/svg" xmlns:xlink="http://www.w3.org/1999/xlink"><g id="tight-bounds" transform="matrix(1,0,0,1,0.2400000000000091,0.15450976179567988)"><svg viewBox="0 0 395.52 104.69098047640865" height="104.69098047640865" width="395.52"><g><svg viewBox="0 0 558.5592102410558 147.8461553758713" height="104.69098047640865" width="395.52"><g transform="matrix(1,0,0,1,163.03921024105586,41.74476463369766)"><svg viewBox="0 0 395.52 64.35662610847596" height="64.35662610847596" width="395.52"><g id="textblocktransform"><svg viewBox="0 0 395.52 64.35662610847596" height="64.35662610847596" width="395.52" id="textblock"><g><svg viewBox="0 0 395.52 64.35662610847596" height="64.35662610847596" width="395.52"><g transform="matrix(1,0,0,1,0,0)"><svg width="395.52" viewBox="4.650000095367432 -38.599998474121094 242.44000244140625 39.44999694824219" height="64.35662610847596" data-palette-color="#ff7077"><path d="M11.6-6.05L26.45-6.05 26.45 0 4.65 0 4.65-37.9 11.6-37.9 11.6-6.05ZM33.1 0L33.1-37.9 40.05-37.9 40.05 0 33.1 0ZM73.3-37.9L80.25-37.9 80.25 0 72.45 0 56.3-26.6 56.3 0 49.35 0 49.35-37.9 57.2-37.9 73.3-11.3 73.3-37.9ZM100.89-23.15L119.49-23.15 119.49-2.65Q116.44-0.95 112.97-0.05 109.49 0.85 106.44 0.85L106.44 0.85Q100.19 0.85 95.87-1.63 91.54-4.1 89.37-8.55 87.19-13 87.19-18.9L87.19-18.9Q87.19-24.5 89.27-28.95 91.34-33.4 95.67-36 99.99-38.6 106.44-38.6L106.44-38.6Q109.74-38.6 112.02-37.98 114.29-37.35 117.14-36.1L117.14-36.1 117.14-29.8Q114.59-31.2 112.12-31.93 109.64-32.65 106.44-32.65L106.44-32.65Q102.64-32.65 99.87-30.9 97.09-29.15 95.64-26.08 94.19-23 94.19-19.05L94.19-19.05Q94.19-12.7 97.42-8.9 100.64-5.1 106.44-5.1L106.44-5.1Q109.54-5.1 112.69-6.35L112.69-6.35 112.69-17.1 100.89-17.1 100.89-23.15ZM144.14 0.85Q138.04 0.85 133.82-1.73 129.59-4.3 127.47-8.78 125.34-13.25 125.34-18.9L125.34-18.9Q125.34-24.45 127.47-28.9 129.59-33.35 133.84-35.98 138.09-38.6 144.14-38.6L144.14-38.6Q150.14-38.6 154.37-35.98 158.59-33.35 160.74-28.88 162.89-24.4 162.89-18.9L162.89-18.9Q162.89-13.25 160.74-8.78 158.59-4.3 154.37-1.73 150.14 0.85 144.14 0.85L144.14 0.85ZM144.14-5.1Q147.79-5.1 150.42-6.9 153.04-8.7 154.42-11.88 155.79-15.05 155.79-19.05L155.79-19.05Q155.79-22.9 154.39-25.98 152.99-29.05 150.37-30.85 147.74-32.65 144.14-32.65L144.14-32.65Q140.39-32.65 137.74-30.85 135.09-29.05 133.77-25.93 132.44-22.8 132.44-18.9L132.44-18.9Q132.44-12.75 135.47-8.93 138.49-5.1 144.14-5.1L144.14-5.1ZM186.24 0.85Q180.14 0.85 175.91-1.73 171.69-4.3 169.56-8.78 167.44-13.25 167.44-18.9L167.44-18.9Q167.44-24.45 169.56-28.9 171.69-33.35 175.94-35.98 180.19-38.6 186.24-38.6L186.24-38.6Q192.24-38.6 196.46-35.98 200.69-33.35 202.84-28.88 204.99-24.4 204.99-18.9L204.99-18.9Q204.99-13.25 202.84-8.78 200.69-4.3 196.46-1.73 192.24 0.85 186.24 0.85L186.24 0.85ZM186.24-5.1Q189.89-5.1 192.51-6.9 195.14-8.7 196.51-11.88 197.89-15.05 197.89-19.05L197.89-19.05Q197.89-22.9 196.49-25.98 195.09-29.05 192.46-30.85 189.84-32.65 186.24-32.65L186.24-32.65Q182.49-32.65 179.84-30.85 177.19-29.05 175.86-25.93 174.54-22.8 174.54-18.9L174.54-18.9Q174.54-12.75 177.56-8.93 180.59-5.1 186.24-5.1L186.24-5.1ZM228.34 0.85Q222.24 0.85 218.01-1.73 213.79-4.3 211.66-8.78 209.54-13.25 209.54-18.9L209.54-18.9Q209.54-24.45 211.66-28.9 213.79-33.35 218.04-35.98 222.29-38.6 228.34-38.6L228.34-38.6Q234.34-38.6 238.56-35.98 242.79-33.35 244.94-28.88 247.09-24.4 247.09-18.9L247.09-18.9Q247.09-13.25 244.94-8.78 242.79-4.3 238.56-1.73 234.34 0.85 228.34 0.85L228.34 0.85ZM228.34-5.1Q231.99-5.1 234.61-6.9 237.24-8.7 238.61-11.88 239.99-15.05 239.99-19.05L239.99-19.05Q239.99-22.9 238.59-25.98 237.19-29.05 234.56-30.85 231.94-32.65 228.34-32.65L228.34-32.65Q224.59-32.65 221.94-30.85 219.29-29.05 217.96-25.93 216.64-22.8 216.64-18.9L216.64-18.9Q216.64-12.75 219.66-8.93 222.69-5.1 228.34-5.1L228.34-5.1Z" opacity="1" transform="matrix(1,0,0,1,0,0)" fill="#ff7077" class="wordmark-text-0" data-fill-palette-color="primary" id="text-0"></path></svg></g></svg></g></svg></g></svg></g><g><svg viewBox="0 0 147.8461553758713 147.8461553758713" height="147.8461553758713" width="147.8461553758713"><g><svg></svg></g><g id="icon-0"><svg viewBox="0 0 147.8461553758713 147.8461553758713" height="147.8461553758713" width="147.8461553758713"><g><rect width="134.43048572139406" height="134.43048572139406" x="6.707834827238614" y="6.707834827238614" fill="#ff7077" data-fill-palette-color="accent"></rect><rect width="134.43048572139406" height="134.43048572139406" x="13.415669654477217" y="9.769962616701378e-15" fill="#ff7077" opacity="0.5" data-fill-palette-color="accent"></rect></g><g transform="matrix(1,0,0,1,19.165242363538873,19.502820261193584)"><svg viewBox="0 0 109.51567064879355 108.84051485348412" height="108.84051485348412" width="109.51567064879355"><g><svg xmlns="http://www.w3.org/2000/svg" data-name="Layer 2" viewBox="10 10.079998016357422 28.002635955810547 27.830001831054688" x="0" y="0" height="108.84051485348412" width="109.51567064879355" class="icon-s-0" data-fill-palette-color="background" id="s-0"><path d="M22.8 29.73a2 2 0 0 0 0.89-3.79 14.53 14.53 0 0 1-3-1.94 25.7 25.7 0 0 0 3.41-5.92 2 2 0 0 0-0.14-4H20v-2a2 2 0 0 0-4 0v2H12a2 2 0 0 0 0 4h7.74A21.65 21.65 0 0 1 18 21c-0.38-0.53-0.75-1.08-1.09-1.67a2 2 0 0 0-3.47 2A25.93 25.93 0 0 0 15.24 24a14.28 14.28 0 0 1-2.93 1.93 2 2 0 0 0 0.89 3.79 1.91 1.91 0 0 0 0.89-0.21A18.89 18.89 0 0 0 18 26.9a18.63 18.63 0 0 0 3.92 2.62A1.91 1.91 0 0 0 22.8 29.73Z" fill="#ffffff" data-fill-palette-color="background"></path><path d="M37.84 35.12l-1-2.32-0.06-0.14L31.84 21.12a2 2 0 0 0-3.68 0l-5 11.6v0l-1 2.38a2 2 0 0 0 3.68 1.58l0.51-1.19h7.3l0.51 1.19A2 2 0 0 0 36 37.91a2 2 0 0 0 1.84-2.79Zm-9.78-3.61L30 27l1.94 4.52Z" fill="#ffffff" data-fill-palette-color="background"></path></svg></g></svg></g></svg></g></svg></g></svg></g><defs></defs></svg><rect width="395.52" height="104.69098047640865" fill="none" stroke="none" visibility="hidden"></rect></g></svg></g></svg>