<svg width="999" height="265" viewBox="0 0 999 265" fill="none" xmlns="http://www.w3.org/2000/svg">
<g clip-path="url(#clip0_1_8)">
<g clip-path="url(#clip1_1_8)">
<g clip-path="url(#clip2_1_8)">
<g clip-path="url(#clip3_1_8)">
<g clip-path="url(#clip4_1_8)">
<path d="M311.934 169.5H355.228V187.139H291.672V76.6441H311.934V169.5ZM374.616 187.139V76.6441H394.878V187.139H374.616ZM491.816 76.6441H512.078V187.139H489.338L442.254 109.588V187.139H421.991V76.6441H444.878L491.816 154.194V76.6441ZM572.253 119.647H626.479V179.413C620.551 182.717 614.215 185.244 607.471 186.993C600.707 188.742 594.361 189.617 588.433 189.617C576.286 189.617 566.014 187.207 557.617 182.387C549.201 177.586 542.884 170.861 538.667 162.212C534.43 153.563 532.311 143.505 532.311 132.037C532.311 121.153 534.333 111.386 538.375 102.737C542.399 94.088 548.618 87.2368 557.034 82.1834C565.43 77.13 575.897 74.6033 588.433 74.6033C594.847 74.6033 600.27 75.2058 604.701 76.4108C609.113 77.6353 614.089 79.4623 619.628 81.8918V100.259C614.672 97.538 609.794 95.468 604.993 94.0492C600.173 92.6498 594.653 91.95 588.433 91.95C581.047 91.95 574.663 93.6507 569.279 97.052C563.876 100.453 559.765 105.137 556.947 111.104C554.128 117.091 552.719 123.923 552.719 131.6C552.719 143.942 555.858 153.806 562.136 161.191C568.394 168.577 577.16 172.27 588.433 172.27C594.458 172.27 600.532 171.055 606.655 168.626V137.285H572.253V119.647ZM698.345 189.617C686.489 189.617 676.46 187.11 668.258 182.095C660.036 177.1 653.865 170.249 649.745 161.541C645.605 152.853 643.535 143.019 643.535 132.037C643.535 121.25 645.605 111.532 649.745 102.883C653.865 94.2338 660.055 87.3534 668.316 82.2417C676.576 77.1494 686.586 74.6033 698.345 74.6033C710.006 74.6033 719.948 77.1494 728.17 82.2417C736.372 87.3534 742.562 94.2532 746.741 102.941C750.92 111.649 753.009 121.347 753.009 132.037C753.009 143.019 750.92 152.853 746.741 161.541C742.562 170.249 736.372 177.1 728.17 182.095C719.948 187.11 710.006 189.617 698.345 189.617ZM698.345 172.27C705.439 172.27 711.542 170.521 716.654 167.022C721.746 163.524 725.633 158.684 728.315 152.503C730.978 146.342 732.309 139.374 732.309 131.6C732.309 124.117 730.949 117.382 728.228 111.396C725.507 105.429 721.6 100.696 716.508 97.1978C711.396 93.6993 705.342 91.95 698.345 91.95C691.056 91.95 684.837 93.6993 679.686 97.1978C674.535 100.696 670.677 105.478 668.112 111.542C665.527 117.625 664.234 124.457 664.234 132.037C664.234 143.99 667.179 153.679 673.068 161.104C678.938 168.548 687.363 172.27 698.345 172.27ZM821.084 189.617C809.228 189.617 799.189 187.11 790.968 182.095C782.766 177.1 776.595 170.249 772.455 161.541C768.334 152.853 766.274 143.019 766.274 132.037C766.274 121.25 768.334 111.532 772.455 102.883C776.595 94.2338 782.795 87.3534 791.055 82.2417C799.316 77.1494 809.325 74.6033 821.084 74.6033C832.746 74.6033 842.678 77.1494 850.88 82.2417C859.101 87.3534 865.302 94.2532 869.48 102.941C873.659 111.649 875.748 121.347 875.748 132.037C875.748 143.019 873.659 152.853 869.48 161.541C865.302 170.249 859.101 177.1 850.88 182.095C842.678 187.11 832.746 189.617 821.084 189.617ZM821.084 172.27C828.178 172.27 834.272 170.521 839.364 167.022C844.476 163.524 848.363 158.684 851.026 152.503C853.708 146.342 855.049 139.374 855.049 131.6C855.049 124.117 853.688 117.382 850.967 111.396C848.246 105.429 844.33 100.696 839.218 97.1978C834.126 93.6993 828.081 91.95 821.084 91.95C813.796 91.95 807.576 93.6993 802.425 97.1978C797.275 100.696 793.407 105.478 790.822 111.542C788.256 117.625 786.974 124.457 786.974 132.037C786.974 143.99 789.909 153.679 795.778 161.104C801.667 168.548 810.103 172.27 821.084 172.27ZM943.824 189.617C931.968 189.617 921.929 187.11 913.707 182.095C905.505 177.1 899.334 170.249 895.194 161.541C891.074 152.853 889.014 143.019 889.014 132.037C889.014 121.25 891.074 111.532 895.194 102.883C899.334 94.2338 905.534 87.3534 913.795 82.2417C922.055 77.1494 932.065 74.6033 943.824 74.6033C955.485 74.6033 965.417 77.1494 973.619 82.2417C981.841 87.3534 988.041 94.2532 992.22 102.941C996.399 111.649 998.488 121.347 998.488 132.037C998.488 143.019 996.399 152.853 992.22 161.541C988.041 170.249 981.841 177.1 973.619 182.095C965.417 187.11 955.485 189.617 943.824 189.617ZM943.824 172.27C950.918 172.27 957.011 170.521 962.103 167.022C967.215 163.524 971.102 158.684 973.765 152.503C976.447 146.342 977.788 139.374 977.788 131.6C977.788 124.117 976.428 117.382 973.707 111.396C970.986 105.429 967.069 100.696 961.958 97.1978C956.865 93.6993 950.821 91.95 943.824 91.95C936.535 91.95 930.316 93.6993 925.165 97.1978C920.014 100.696 916.147 105.478 913.562 111.542C910.996 117.625 909.713 124.457 909.713 132.037C909.713 143.99 912.648 153.679 918.518 161.104C924.407 168.548 932.842 172.27 943.824 172.27Z" fill="#00C9B7"/>
<path d="M311.934 169.5H355.228V187.139H291.672V76.6441H311.934V169.5ZM374.616 187.139V76.6441H394.878V187.139H374.616ZM491.816 76.6441H512.078V187.139H489.338L442.254 109.588V187.139H421.991V76.6441H444.878L491.816 154.194V76.6441ZM572.253 119.647H626.479V179.413C620.551 182.717 614.215 185.244 607.471 186.993C600.707 188.742 594.361 189.617 588.433 189.617C576.286 189.617 566.014 187.207 557.617 182.387C549.201 177.586 542.884 170.861 538.667 162.212C534.43 153.563 532.311 143.505 532.311 132.037C532.311 121.153 534.333 111.386 538.375 102.737C542.399 94.088 548.618 87.2368 557.034 82.1834C565.43 77.13 575.897 74.6033 588.433 74.6033C594.847 74.6033 600.27 75.2058 604.701 76.4108C609.113 77.6353 614.089 79.4623 619.628 81.8918V100.259C614.672 97.538 609.794 95.468 604.993 94.0492C600.173 92.6498 594.653 91.95 588.433 91.95C581.047 91.95 574.663 93.6507 569.279 97.052C563.876 100.453 559.765 105.137 556.947 111.104C554.128 117.091 552.719 123.923 552.719 131.6C552.719 143.942 555.858 153.806 562.136 161.191C568.394 168.577 577.16 172.27 588.433 172.27C594.458 172.27 600.532 171.055 606.655 168.626V137.285H572.253V119.647ZM698.345 189.617C686.489 189.617 676.46 187.11 668.258 182.095C660.036 177.1 653.865 170.249 649.745 161.541C645.605 152.853 643.535 143.019 643.535 132.037C643.535 121.25 645.605 111.532 649.745 102.883C653.865 94.2338 660.055 87.3534 668.316 82.2417C676.576 77.1494 686.586 74.6033 698.345 74.6033C710.006 74.6033 719.948 77.1494 728.17 82.2417C736.372 87.3534 742.562 94.2532 746.741 102.941C750.92 111.649 753.009 121.347 753.009 132.037C753.009 143.019 750.92 152.853 746.741 161.541C742.562 170.249 736.372 177.1 728.17 182.095C719.948 187.11 710.006 189.617 698.345 189.617ZM698.345 172.27C705.439 172.27 711.542 170.521 716.654 167.022C721.746 163.524 725.633 158.684 728.315 152.503C730.978 146.342 732.309 139.374 732.309 131.6C732.309 124.117 730.949 117.382 728.228 111.396C725.507 105.429 721.6 100.696 716.508 97.1978C711.396 93.6993 705.342 91.95 698.345 91.95C691.056 91.95 684.837 93.6993 679.686 97.1978C674.535 100.696 670.677 105.478 668.112 111.542C665.527 117.625 664.234 124.457 664.234 132.037C664.234 143.99 667.179 153.679 673.068 161.104C678.938 168.548 687.363 172.27 698.345 172.27ZM821.084 189.617C809.228 189.617 799.189 187.11 790.968 182.095C782.766 177.1 776.595 170.249 772.455 161.541C768.334 152.853 766.274 143.019 766.274 132.037C766.274 121.25 768.334 111.532 772.455 102.883C776.595 94.2338 782.795 87.3534 791.055 82.2417C799.316 77.1494 809.325 74.6033 821.084 74.6033C832.746 74.6033 842.678 77.1494 850.88 82.2417C859.101 87.3534 865.302 94.2532 869.48 102.941C873.659 111.649 875.748 121.347 875.748 132.037C875.748 143.019 873.659 152.853 869.48 161.541C865.302 170.249 859.101 177.1 850.88 182.095C842.678 187.11 832.746 189.617 821.084 189.617ZM821.084 172.27C828.178 172.27 834.272 170.521 839.364 167.022C844.476 163.524 848.363 158.684 851.026 152.503C853.708 146.342 855.049 139.374 855.049 131.6C855.049 124.117 853.688 117.382 850.967 111.396C848.246 105.429 844.33 100.696 839.218 97.1978C834.126 93.6993 828.081 91.95 821.084 91.95C813.796 91.95 807.576 93.6993 802.425 97.1978C797.275 100.696 793.407 105.478 790.822 111.542C788.256 117.625 786.974 124.457 786.974 132.037C786.974 143.99 789.909 153.679 795.778 161.104C801.667 168.548 810.103 172.27 821.084 172.27ZM943.824 189.617C931.968 189.617 921.929 187.11 913.707 182.095C905.505 177.1 899.334 170.249 895.194 161.541C891.074 152.853 889.014 143.019 889.014 132.037C889.014 121.25 891.074 111.532 895.194 102.883C899.334 94.2338 905.534 87.3534 913.795 82.2417C922.055 77.1494 932.065 74.6033 943.824 74.6033C955.485 74.6033 965.417 77.1494 973.619 82.2417C981.841 87.3534 988.041 94.2532 992.22 102.941C996.399 111.649 998.488 121.347 998.488 132.037C998.488 143.019 996.399 152.853 992.22 161.541C988.041 170.249 981.841 177.1 973.619 182.095C965.417 187.11 955.485 189.617 943.824 189.617ZM943.824 172.27C950.918 172.27 957.011 170.521 962.103 167.022C967.215 163.524 971.102 158.684 973.765 152.503C976.447 146.342 977.788 139.374 977.788 131.6C977.788 124.117 976.428 117.382 973.707 111.396C970.986 105.429 967.069 100.696 961.958 97.1978C956.865 93.6993 950.821 91.95 943.824 91.95C936.535 91.95 930.316 93.6993 925.165 97.1978C920.014 100.696 916.147 105.478 913.562 111.542C910.996 117.625 909.713 124.457 909.713 132.037C909.713 143.99 912.648 153.679 918.518 161.104C924.407 168.548 932.842 172.27 943.824 172.27Z" fill="white"/>
<path d="M311.934 169.5H355.228V187.139H291.672V76.6441H311.934V169.5ZM374.616 187.139V76.6441H394.878V187.139H374.616ZM491.816 76.6441H512.078V187.139H489.338L442.254 109.588V187.139H421.991V76.6441H444.878L491.816 154.194V76.6441ZM572.253 119.647H626.479V179.413C620.551 182.717 614.215 185.244 607.471 186.993C600.707 188.742 594.361 189.617 588.433 189.617C576.286 189.617 566.014 187.207 557.617 182.387C549.201 177.586 542.884 170.861 538.667 162.212C534.43 153.563 532.311 143.505 532.311 132.037C532.311 121.153 534.333 111.386 538.375 102.737C542.399 94.088 548.618 87.2368 557.034 82.1834C565.43 77.13 575.897 74.6033 588.433 74.6033C594.847 74.6033 600.27 75.2058 604.701 76.4108C609.113 77.6353 614.089 79.4623 619.628 81.8918V100.259C614.672 97.538 609.794 95.468 604.993 94.0492C600.173 92.6498 594.653 91.95 588.433 91.95C581.047 91.95 574.663 93.6507 569.279 97.052C563.876 100.453 559.765 105.137 556.947 111.104C554.128 117.091 552.719 123.923 552.719 131.6C552.719 143.942 555.858 153.806 562.136 161.191C568.394 168.577 577.16 172.27 588.433 172.27C594.458 172.27 600.532 171.055 606.655 168.626V137.285H572.253V119.647ZM698.345 189.617C686.489 189.617 676.46 187.11 668.258 182.095C660.036 177.1 653.865 170.249 649.745 161.541C645.605 152.853 643.535 143.019 643.535 132.037C643.535 121.25 645.605 111.532 649.745 102.883C653.865 94.2338 660.055 87.3534 668.316 82.2417C676.576 77.1494 686.586 74.6033 698.345 74.6033C710.006 74.6033 719.948 77.1494 728.17 82.2417C736.372 87.3534 742.562 94.2532 746.741 102.941C750.92 111.649 753.009 121.347 753.009 132.037C753.009 143.019 750.92 152.853 746.741 161.541C742.562 170.249 736.372 177.1 728.17 182.095C719.948 187.11 710.006 189.617 698.345 189.617ZM698.345 172.27C705.439 172.27 711.542 170.521 716.654 167.022C721.746 163.524 725.633 158.684 728.315 152.503C730.978 146.342 732.309 139.374 732.309 131.6C732.309 124.117 730.949 117.382 728.228 111.396C725.507 105.429 721.6 100.696 716.508 97.1978C711.396 93.6993 705.342 91.95 698.345 91.95C691.056 91.95 684.837 93.6993 679.686 97.1978C674.535 100.696 670.677 105.478 668.112 111.542C665.527 117.625 664.234 124.457 664.234 132.037C664.234 143.99 667.179 153.679 673.068 161.104C678.938 168.548 687.363 172.27 698.345 172.27ZM821.084 189.617C809.228 189.617 799.189 187.11 790.968 182.095C782.766 177.1 776.595 170.249 772.455 161.541C768.334 152.853 766.274 143.019 766.274 132.037C766.274 121.25 768.334 111.532 772.455 102.883C776.595 94.2338 782.795 87.3534 791.055 82.2417C799.316 77.1494 809.325 74.6033 821.084 74.6033C832.746 74.6033 842.678 77.1494 850.88 82.2417C859.101 87.3534 865.302 94.2532 869.48 102.941C873.659 111.649 875.748 121.347 875.748 132.037C875.748 143.019 873.659 152.853 869.48 161.541C865.302 170.249 859.101 177.1 850.88 182.095C842.678 187.11 832.746 189.617 821.084 189.617ZM821.084 172.27C828.178 172.27 834.272 170.521 839.364 167.022C844.476 163.524 848.363 158.684 851.026 152.503C853.708 146.342 855.049 139.374 855.049 131.6C855.049 124.117 853.688 117.382 850.967 111.396C848.246 105.429 844.33 100.696 839.218 97.1978C834.126 93.6993 828.081 91.95 821.084 91.95C813.796 91.95 807.576 93.6993 802.425 97.1978C797.275 100.696 793.407 105.478 790.822 111.542C788.256 117.625 786.974 124.457 786.974 132.037C786.974 143.99 789.909 153.679 795.778 161.104C801.667 168.548 810.103 172.27 821.084 172.27ZM943.824 189.617C931.968 189.617 921.929 187.11 913.707 182.095C905.505 177.1 899.334 170.249 895.194 161.541C891.074 152.853 889.014 143.019 889.014 132.037C889.014 121.25 891.074 111.532 895.194 102.883C899.334 94.2338 905.534 87.3534 913.795 82.2417C922.055 77.1494 932.065 74.6033 943.824 74.6033C955.485 74.6033 965.417 77.1494 973.619 82.2417C981.841 87.3534 988.041 94.2532 992.22 102.941C996.399 111.649 998.488 121.347 998.488 132.037C998.488 143.019 996.399 152.853 992.22 161.541C988.041 170.249 981.841 177.1 973.619 182.095C965.417 187.11 955.485 189.617 943.824 189.617ZM943.824 172.27C950.918 172.27 957.011 170.521 962.103 167.022C967.215 163.524 971.102 158.684 973.765 152.503C976.447 146.342 977.788 139.374 977.788 131.6C977.788 124.117 976.428 117.382 973.707 111.396C970.986 105.429 967.069 100.696 961.958 97.1978C956.865 93.6993 950.821 91.95 943.824 91.95C936.535 91.95 930.316 93.6993 925.165 97.1978C920.014 100.696 916.147 105.478 913.562 111.542C910.996 117.625 909.713 124.457 909.713 132.037C909.713 143.99 912.648 153.679 918.518 161.104C924.407 168.548 932.842 172.27 943.824 172.27Z" stroke="black"/>
</g>
</g>
</g>
</g>
<g clip-path="url(#clip5_1_8)">
<g clip-path="url(#clip6_1_8)">
<path d="M252.518 11.9878H12.2731V252.232H252.518V11.9878Z" fill="#00C9B7"/>
<path opacity="0.5" d="M264.505 0H24.2609V240.245H264.505V0Z" fill="#00C9B7"/>
<g clip-path="url(#clip7_1_8)">
<g clip-path="url(#clip8_1_8)">
<path d="M123.999 172.194C127.148 172.19 130.204 171.124 132.671 169.167C135.139 167.209 136.873 164.477 137.593 161.411C138.312 158.345 137.976 155.126 136.638 152.275C135.3 149.424 133.038 147.109 130.219 145.704C122.699 142.064 115.657 137.51 109.252 132.145C119.002 119.475 127.017 105.56 133.085 90.7684C136.792 90.6386 140.296 89.0414 142.826 86.3282C145.356 83.6149 146.704 80.0079 146.574 76.3005C146.445 72.5932 144.847 69.0892 142.134 66.5595C139.421 64.0297 135.814 62.6814 132.107 62.8112H104.429V48.8326C104.429 45.1253 102.956 41.5698 100.335 38.9483C97.7133 36.3268 94.1578 34.854 90.4504 34.854C86.7431 34.854 83.1876 36.3268 80.5661 38.9483C77.9446 41.5698 76.4718 45.1253 76.4718 48.8326V62.8112H48.5147C44.8073 62.8112 41.2518 64.2839 38.6303 66.9054C36.0088 69.5269 34.5361 73.0824 34.5361 76.7898C34.5361 80.4971 36.0088 84.0526 38.6303 86.6741C41.2518 89.2956 44.8073 90.7684 48.5147 90.7684H102.612C99.0991 97.8795 95.0328 104.703 90.4504 111.177C87.7945 107.473 85.2084 103.629 82.8321 99.505C80.9784 96.2889 77.923 93.9408 74.3382 92.9774C70.7533 92.014 66.9325 92.5142 63.7164 94.3679C60.5002 96.2215 58.1522 99.2769 57.1888 102.862C56.2254 106.447 56.7256 110.267 58.5792 113.484C62.3821 119.959 66.5838 126.191 71.16 132.145C64.9142 137.466 58.0361 141.997 50.6813 145.634C47.8628 147.039 45.6012 149.354 44.263 152.205C42.9247 155.056 42.5883 158.275 43.3083 161.341C44.0282 164.407 45.7623 167.14 48.2296 169.097C50.6968 171.054 53.7526 172.12 56.9018 172.124C59.0636 172.145 61.1982 171.642 63.1223 170.656C72.9557 165.737 82.1362 159.609 90.4504 152.414C98.7707 159.654 107.977 165.807 117.848 170.726C119.751 171.701 121.861 172.204 123.999 172.194Z" fill="white"/>
<path d="M229.118 209.866L222.129 193.651L221.709 192.672L187.182 112.016C186.108 109.494 184.316 107.344 182.03 105.833C179.743 104.321 177.063 103.516 174.322 103.516C171.581 103.516 168.901 104.321 166.614 105.833C164.328 107.344 162.536 109.494 161.462 112.016L126.515 193.092L119.526 209.726C118.061 213.137 118.012 216.99 119.388 220.437C120.765 223.884 123.454 226.644 126.865 228.108C130.275 229.572 134.128 229.622 137.575 228.246C141.023 226.869 143.782 224.18 145.246 220.769L148.811 212.452H199.833L203.397 220.769C204.457 223.309 206.242 225.479 208.53 227.009C210.818 228.538 213.506 229.358 216.258 229.366C218.574 229.369 220.854 228.797 222.895 227.7C224.935 226.603 226.67 225.017 227.945 223.083C229.221 221.15 229.995 218.93 230.2 216.623C230.405 214.316 230.033 211.994 229.118 209.866ZM160.763 184.635L174.322 153.113L187.881 184.704L160.763 184.635Z" fill="white"/>
</g>
</g>
</g>
</g>
</g>
<defs>
<clipPath id="clip0_1_8">
<rect width="998.217" height="264.22" fill="white" transform="translate(0.285339)"/>
</clipPath>
<clipPath id="clip1_1_8">
<rect width="706.845" height="115.014" fill="white" transform="translate(291.657 74.6033)"/>
</clipPath>
<clipPath id="clip2_1_8">
<rect width="706.845" height="115.014" fill="white" transform="translate(291.657 74.6033)"/>
</clipPath>
<clipPath id="clip3_1_8">
<rect width="706.845" height="115.014" fill="white" transform="translate(291.657 74.6033)"/>
</clipPath>
<clipPath id="clip4_1_8">
<rect width="706.845" height="115.014" fill="white" transform="translate(291.657 74.6033)"/>
</clipPath>
<clipPath id="clip5_1_8">
<rect width="264.22" height="264.22" fill="white" transform="translate(0.285339)"/>
</clipPath>
<clipPath id="clip6_1_8">
<rect width="264.22" height="264.22" fill="white" transform="translate(0.285339)"/>
</clipPath>
<clipPath id="clip7_1_8">
<rect width="195.719" height="194.512" fill="white" transform="translate(34.5361 34.854)"/>
</clipPath>
<clipPath id="clip8_1_8">
<rect width="195.719" height="194.512" fill="white" transform="translate(34.5361 34.854)"/>
</clipPath>
</defs>
</svg>
